<?xml version="1.0" standalone="no"?>
<!DOCTYPE svg PUBLIC "-//W3C//DTD SVG 20010904//EN"
 "http://www.w3.org/TR/2001/REC-SVG-20010904/DTD/svg10.dtd">
<svg version="1.0" xmlns="http://www.w3.org/2000/svg"
 width="150.000000pt" height="192.000000pt" viewBox="0 0 150.000000 192.000000"
 preserveAspectRatio="xMidYMid meet" fill="red">
<metadata>
Created by potrace 1.15, written by Peter Selinger 2001-2017
</metadata>
<g transform="translate(0.000000,192.000000) scale(0.100000,-0.100000)"
fill="#000000" stroke="none" >
<path d="M406 1805 c-9 -9 -16 -25 -16 -35 0 -14 -10 -20 -40 -25 -23 -4 -54
-18 -71 -32 -62 -52 -59 -17 -59 -770 0 -651 1 -690 19 -723 36 -68 55 -75
224 -78 145 -3 154 -2 186 20 19 13 44 36 55 51 21 28 21 36 24 713 2 662 2
686 -17 729 -21 47 -64 81 -116 91 -21 4 -35 15 -45 37 -14 30 -19 32 -71 35
-42 2 -61 -1 -73 -13z m196 -105 c20 -6 46 -22 58 -37 20 -25 20 -36 20 -720
l0 -695 -34 -34 -34 -34 -131 0 c-147 0 -180 10 -206 60 -14 26 -15 114 -13
714 l3 684 24 26 c14 15 39 30 55 35 43 13 214 13 258 1z"/>
<path d="M374 1670 c-70 -35 -76 -57 -72 -267 l3 -182 173 106 172 105 0 79
c0 133 -34 170 -160 176 -62 4 -82 0 -116 -17z"/>
<path d="M473 1284 l-173 -106 0 -345 0 -345 23 14 c12 8 91 56 175 107 l152
93 0 344 c0 189 -1 344 -2 344 -2 0 -81 -48 -175 -106z"/>
<path d="M473 553 l-173 -105 0 -79 c0 -99 16 -134 73 -160 57 -25 148 -25
202 1 71 34 77 56 73 267 l-3 182 -172 -106z"/>
<path d="M992 1808 c-5 -7 -12 -23 -16 -34 -5 -16 -18 -23 -46 -28 -52 -8
-107 -57 -120 -106 -7 -26 -10 -271 -8 -719 3 -669 3 -680 24 -707 47 -64 63
-69 220 -72 140 -3 146 -3 188 22 80 47 76 6 76 783 0 651 -1 690 -19 723 -21
40 -83 80 -123 80 -22 0 -28 5 -28 23 0 13 -5 28 -12 35 -16 16 -123 16 -136
0z m212 -113 c69 -33 66 2 66 -750 0 -752 3 -717 -66 -750 -45 -21 -253 -21
-294 0 -63 33 -60 -8 -60 748 0 467 3 695 11 708 24 46 66 59 192 59 86 0 128
-4 151 -15z"/>
<path d="M1053 1284 l-173 -106 0 -344 0 -345 28 16 c15 9 95 58 177 108 l150
93 3 342 c1 188 -1 342 -5 342 -5 0 -86 -48 -180 -106z"/>
<path d="M1053 554 l-173 -106 0 -74 c0 -134 41 -174 178 -174 161 0 181 32
182 288 0 94 -3 172 -7 172 -5 0 -86 -48 -180 -106z"/>
</g>
</svg>
