<?xml version="1.0" standalone="no"?>
<!DOCTYPE svg PUBLIC "-//W3C//DTD SVG 20010904//EN"
 "http://www.w3.org/TR/2001/REC-SVG-20010904/DTD/svg10.dtd">
<svg version="1.0" xmlns="http://www.w3.org/2000/svg"
 width="178.000000pt" height="192.000000pt" viewBox="0 0 178.000000 192.000000"
 preserveAspectRatio="xMidYMid meet">
<metadata>
Created by potrace 1.15, written by Peter Selinger 2001-2017
</metadata>
<g transform="translate(0.000000,192.000000) scale(0.100000,-0.100000)"
fill="#000000" stroke="none">
<path d="M145 1715 c-47 -17 -93 -67 -100 -110 -3 -16 -5 -339 -3 -717 3 -675
3 -687 24 -714 39 -53 71 -69 134 -69 63 0 95 16 134 69 21 27 21 36 21 739
l0 712 -23 33 c-42 58 -119 82 -187 57z m118 -66 c15 -11 31 -37 37 -57 8 -25
10 -249 8 -704 l-3 -668 -32 -32 c-46 -46 -100 -46 -146 0 l-32 32 -3 678 c-2
495 1 684 9 705 27 64 109 88 162 46z"/>
<path d="M1535 1706 c-37 -17 -70 -52 -84 -89 -8 -19 -11 -252 -11 -711 l0
-682 23 -44 c53 -105 198 -114 271 -17 21 28 21 32 21 742 0 705 0 714 -21
741 -11 15 -32 37 -46 47 -34 25 -113 32 -153 13z m140 -76 l30 -30 3 -678 c2
-495 -1 -684 -9 -705 -39 -95 -171 -87 -199 11 -8 25 -10 248 -8 699 3 654 3
662 24 690 45 61 106 66 159 13z"/>
<path d="M420 1370 c-19 -19 -20 -33 -20 -440 0 -407 1 -421 20 -440 25 -25
55 -25 80 0 19 19 20 33 20 440 0 407 -1 421 -20 440 -11 11 -29 20 -40 20
-11 0 -29 -9 -40 -20z"/>
<path d="M548 1379 c-17 -9 -18 -41 -18 -444 0 -381 2 -435 16 -449 20 -20 43
-20 72 0 l22 15 0 428 c0 402 -1 429 -18 444 -21 19 -49 21 -74 6z"/>
<path d="M670 1370 c-19 -19 -20 -33 -20 -440 0 -407 1 -421 20 -440 25 -25
55 -25 80 0 19 19 20 33 20 440 0 407 -1 421 -20 440 -11 11 -29 20 -40 20
-11 0 -29 -9 -40 -20z"/>
<path d="M798 1379 c-17 -9 -18 -41 -18 -444 0 -381 2 -435 16 -449 20 -20 43
-20 72 0 l22 15 0 428 c0 402 -1 429 -18 444 -21 19 -49 21 -74 6z"/>
<path d="M920 1370 c-19 -19 -20 -33 -20 -440 0 -407 1 -421 20 -440 25 -25
55 -25 80 0 19 19 20 33 20 440 0 407 -1 421 -20 440 -11 11 -29 20 -40 20
-11 0 -29 -9 -40 -20z"/>
<path d="M1048 1379 c-17 -9 -18 -41 -18 -450 l0 -439 26 -12 c21 -10 31 -9
52 3 l27 15 3 429 c2 428 2 430 -19 448 -24 19 -46 21 -71 6z"/>
<path d="M1170 1370 c-19 -19 -20 -33 -20 -440 0 -407 1 -421 20 -440 25 -25
55 -25 80 0 19 19 20 33 20 440 0 407 -1 421 -20 440 -11 11 -29 20 -40 20
-11 0 -29 -9 -40 -20z"/>
<path d="M1298 1379 c-17 -9 -18 -41 -18 -450 l0 -439 26 -12 c21 -10 31 -9
52 3 l27 15 3 429 c2 428 2 430 -19 448 -24 19 -46 21 -71 6z"/>
</g>
</svg>
