<?xml version="1.0" standalone="no"?>
<!DOCTYPE svg PUBLIC "-//W3C//DTD SVG 20010904//EN"
 "http://www.w3.org/TR/2001/REC-SVG-20010904/DTD/svg10.dtd">
<svg version="1.0" xmlns="http://www.w3.org/2000/svg"
 width="150.000000pt" height="192.000000pt" viewBox="0 0 150.000000 192.000000"
 preserveAspectRatio="xMidYMid meet">
<metadata>
Created by potrace 1.15, written by Peter Selinger 2001-2017
</metadata>
<g transform="translate(0.000000,192.000000) scale(0.100000,-0.100000)"
fill="#000000" stroke="none">
<path d="M402 1869 c-76 -13 -144 -45 -183 -85 -34 -35 -34 -36 -37 -140 l-4
-104 26 0 c26 0 26 1 26 80 0 103 14 131 83 164 47 24 165 46 244 46 l22 0
-24 -24 c-13 -13 -28 -41 -33 -62 -5 -22 -54 -407 -108 -856 l-99 -818 -127 0
-128 0 0 -25 0 -25 680 0 680 0 0 25 0 25 -127 0 -128 0 -118 803 c-66 441
-123 823 -129 850 -6 31 -20 58 -41 79 l-32 31 95 -7 c121 -9 198 -30 244 -68
l36 -29 0 -95 0 -94 30 0 30 0 -1 83 c0 45 -5 97 -12 116 -16 44 -68 85 -142
113 -56 21 -79 22 -365 24 -168 2 -329 -2 -358 -7z m412 -89 c34 -12 52 -50
65 -137 19 -125 36 -113 -159 -113 l-170 0 0 24 c0 45 22 180 31 199 6 10 20
22 32 27 30 12 170 12 201 0z m-170 -356 c26 -31 46 -60 46 -65 0 -5 -42 -62
-92 -126 -64 -80 -94 -112 -96 -100 -2 10 4 75 12 145 27 214 24 202 56 202
23 0 38 -12 74 -56z m261 34 c12 -52 50 -337 44 -330 -5 6 -147 188 -172 219
-6 8 6 31 39 73 50 63 80 76 89 38z m-85 -256 c45 -57 80 -106 77 -108 -2 -2
-79 -3 -171 -2 l-166 3 83 107 c45 59 85 106 89 105 4 -1 43 -48 88 -105z
m-201 -248 c39 -47 71 -89 71 -93 0 -14 -255 -312 -258 -302 -3 10 46 446 53
469 3 6 17 12 33 12 24 0 41 -14 101 -86z m210 69 c-52 -67 -94 -113 -100
-111 -3 2 -30 31 -59 66 l-52 62 112 0 c106 0 112 -1 99 -17z m141 9 c0 -4 16
-113 35 -242 20 -129 34 -238 33 -242 -2 -5 -63 64 -136 152 l-134 161 59 70
c32 39 64 79 72 90 13 18 71 28 71 11z m-115 -363 l113 -134 -114 -3 c-62 -1
-168 -1 -235 0 l-121 3 113 137 c63 76 118 136 123 135 5 -2 60 -64 121 -138z
m199 -216 c6 -31 56 -364 56 -375 0 -5 -166 -8 -370 -8 -240 0 -370 4 -370 10
0 18 41 354 46 378 l4 22 314 0 314 0 6 -27z"/>
</g>
</svg>
