<?xml version="1.0" standalone="no"?>
<!DOCTYPE svg PUBLIC "-//W3C//DTD SVG 20010904//EN"
 "http://www.w3.org/TR/2001/REC-SVG-20010904/DTD/svg10.dtd">
<svg version="1.0" xmlns="http://www.w3.org/2000/svg"
 width="178.000000pt" height="192.000000pt" viewBox="0 0 178.000000 192.000000"
 preserveAspectRatio="xMidYMid meet">
<metadata>
Created by potrace 1.15, written by Peter Selinger 2001-2017
</metadata>
<g transform="translate(0.000000,192.000000) scale(0.100000,-0.100000)"
fill="#000000" stroke="none">
<path d="M551 1472 l-353 -157 362 -3 c199 -1 522 -1 717 0 l356 3 -360 158
c-198 86 -362 157 -364 156 -2 0 -163 -71 -358 -157z m597 -4 l234 -103 -230
-3 c-127 -1 -337 -1 -468 0 l-237 3 229 102 c126 55 231 102 233 102 3 1 110
-45 239 -101z"/>
<path d="M260 730 l0 -540 650 0 650 0 0 540 0 540 -650 0 -650 0 0 -540z
m1240 5 l0 -485 -590 0 -590 0 0 485 0 485 590 0 590 0 0 -485z"/>
<path d="M456 1114 c-23 -22 -21 -81 3 -94 13 -6 169 -10 440 -10 461 0 451
-1 451 60 0 60 -1 60 -462 60 -365 0 -419 -2 -432 -16z"/>
<path d="M458 989 c-11 -6 -18 -22 -18 -42 0 -65 -22 -62 441 -65 467 -3 469
-3 469 58 0 61 11 60 -453 60 -268 0 -428 -4 -439 -11z"/>
<path d="M452 858 c-7 -7 -12 -26 -12 -43 0 -17 5 -36 12 -43 9 -9 121 -12
445 -12 417 0 433 1 443 19 14 26 13 64 -2 79 -17 17 -869 17 -886 0z"/>
<path d="M458 739 c-11 -6 -18 -22 -18 -42 0 -65 -22 -62 441 -65 467 -3 469
-3 469 58 0 61 11 60 -453 60 -268 0 -428 -4 -439 -11z"/>
</g>
</svg>
